# xmcd
#
# Track frame offsets: 
#        150
#        15442
#        38692
#        50004
#        60717
#        73466
#        85351
#        92742
#        102192
#        115093
#        123971
#        136758
#        148102
#        158002
#        175011
#        185608
#        190215
#        203477
#
# Disc length: 2881 seconds
#
# Revision: 0
# Processed by: cddbd v1.5.2PL0 Copyright (c) Steve Scherf et al.
# Submitted via: ExactAudioCopy v0.99pb5
#
DISCID=f50b3f12
DTITLE=Bing Crosby - Christmas Favorites
DYEAR=2011
DGENRE=Christmas
TTITLE0=White Christmas
TTITLE1=Deck The Halls
TTITLE2=Rudolph The Red-Nosed Reindeer (With Ella Fitzgerald)
TTITLE3=Silent Night
TTITLE4=Sleigh Ride
TTITLE5=Little Drummer Boy (With David Bowie)
TTITLE6=Jingle Bells
TTITLE7=Adeste Fideles
TTITLE8=A Marshmallow World (With Ella Fitzgerald)
TTITLE9=Let It Snow! Let It Snow! Let It Snow!
TTITLE10=I'll Be Home For Christmas
TTITLE11=Here Comes Santa Claus (With Peggy Lee)
TTITLE12=White World Of Winter
TTITLE13=The Christmas Song
TTITLE14=Just What I Wanted For Christmas
TTITLE15=Santa Claus Is Coming To Town
TTITLE16=The Secret Of Christmas
TTITLE17=It's Christmas Time Again
EXTD=
EXTT0=
EXTT1=
EXTT2=
EXTT3=
EXTT4=
EXTT5=
EXTT6=
EXTT7=
EXTT8=
EXTT9=
EXTT10=
EXTT11=
EXTT12=
EXTT13=
EXTT14=
EXTT15=
EXTT16=
EXTT17=
PLAYORDER=
